<svg id="Layer_1" data-name="Layer 1" xmlns="http://www.w3.org/2000/svg" xmlns:xlink="http://www.w3.org/1999/xlink" viewBox="0 0 709.63 157.32"><defs><style>.cls-1{fill:#0a0a0a;}.cls-2{fill:url(#linear-gradient);}.cls-3{fill:url(#linear-gradient-2);}.cls-4{fill:url(#linear-gradient-3);}.cls-5{fill:url(#linear-gradient-4);}.cls-6{fill:url(#linear-gradient-5);}.cls-7{fill:url(#linear-gradient-6);}</style><linearGradient id="linear-gradient" x1="213.49" y1="567.81" x2="216.17" y2="435.34" gradientUnits="userSpaceOnUse"><stop offset="0" stop-color="#b22cd5"/><stop offset="1" stop-color="#f82c8d"/></linearGradient><linearGradient id="linear-gradient-2" x1="231.87" y1="419.24" x2="231.87" y2="571.84" gradientUnits="userSpaceOnUse"><stop offset="0" stop-color="#8624e1"/><stop offset="1" stop-color="#4d0fb7"/></linearGradient><linearGradient id="linear-gradient-3" x1="99.61" y1="147.1" x2="102.29" y2="14.63" xlink:href="#linear-gradient"/><linearGradient id="linear-gradient-4" x1="8.8" y1="145.26" x2="11.49" y2="12.79" xlink:href="#linear-gradient"/><linearGradient id="linear-gradient-5" x1="124.41" y1="-2.1" x2="124.41" y2="150.5" xlink:href="#linear-gradient-2"/><linearGradient id="linear-gradient-6" x1="58.18" y1="-2.1" x2="58.18" y2="150.5" xlink:href="#linear-gradient-2"/></defs><path class="cls-1" d="M365.74,534.54l-41.08-55v55h-7.83V466.06H325L366,521.14V466.06h7.73v68.48Z" transform="translate(-145.19 -421.34)"/><path class="cls-1" d="M402.43,473.59v22.5H437v7.54H402.43v23.48h39.92v7.43H394.61V466.06h46.47v7.53Z" transform="translate(-145.19 -421.34)"/><path class="cls-1" d="M479.13,473.59v60.95h-7.82V473.59H449v-7.53h52.54v7.53Z" transform="translate(-145.19 -421.34)"/><path class="cls-1" d="M517,527.11h45.88l-.1,7.43h-56v-6.26l45.39-54.69H508v-7.53h54.39v6.26Z" transform="translate(-145.19 -421.34)"/><path class="cls-1" d="M626.57,534.54V504.41H585.28v30.13h-7.82V466.06h7.82V497h41.29V466.06h7.83v68.48Z" transform="translate(-145.19 -421.34)"/><path class="cls-1" d="M663,473.59v22.5H697.5v7.54H663v23.48h39.92v7.43H655.14V466.06h46.47v7.53Z" transform="translate(-145.19 -421.34)"/><path class="cls-1" d="M749.45,512.72c-1.47.1-3,.2-4.6.2h-18.2v21.62h-7.82V466.06h26c17.12,0,27,8.41,27,23,0,11.35-5.48,19-15.36,22.21l16,23.28h-8.91Zm-4.6-7.33c12.42,0,19.47-5.48,19.47-16.14,0-10.37-7.05-15.66-19.47-15.66h-18.2v31.8Z" transform="translate(-145.19 -421.34)"/><path class="cls-1" d="M854.81,500.3c0,19.27-15.85,34.63-35.8,34.63S783.1,519.57,783.1,500.3,799,465.86,819,465.86,854.81,481,854.81,500.3Zm-63.78,0c0,15.07,12.72,27.1,28,27.1s27.78-12,27.78-27.1-12.52-27-27.78-27S791,485.23,791,500.3Z" transform="translate(-145.19 -421.34)"/><path class="cls-2" d="M209.65,533.93h-.08a4,4,0,0,0-4,4v26.59l-47-27.62V463.1l47-27.62v42.59l66,32.83v11.28a4,4,0,0,0,4,4h.08a4,4,0,0,0,4-4V507l-66-32.83V421.34l-63.19,37.13v83.06L197.24,569h0l16.42,9.64V537.93A4,4,0,0,0,209.65,533.93Z" transform="translate(-145.19 -421.34)"/><path class="cls-3" d="M233.27,421.34v40.73a4,4,0,0,0,4,4h.08a4,4,0,0,0,4-4V435.48l47,27.62v73.8l-40,23.53h0l-7,4.09V521.93l-66-32.83V477.82a4,4,0,0,0-4-4h-.08a4,4,0,0,0-4,4V493l66,32.83v52.83l63.18-37.13V458.47Z" transform="translate(-145.19 -421.34)"/><circle class="cls-4" cx="101.14" cy="71.29" r="9.85"/><circle class="cls-5" cx="9.85" cy="93.67" r="9.85"/><circle class="cls-6" cx="124.41" cy="131.26" r="9.85"/><circle class="cls-7" cx="58.18" cy="85.62" r="9.85"/><circle class="cls-6" cx="124.41" cy="25.65" r="9.85"/></svg>