<svg xmlns="http://www.w3.org/2000/svg" xmlns:xlink="http://www.w3.org/1999/xlink" viewBox="0 0 709.63 157.32"><defs><style>.cls-1{fill:#fff;}.cls-2{fill:url(#linear-gradient);}.cls-3{fill:url(#linear-gradient-2);}.cls-4{fill:url(#linear-gradient-3);}.cls-5{fill:url(#linear-gradient-4);}.cls-6{fill:url(#linear-gradient-5);}.cls-7{fill:url(#linear-gradient-6);}</style><linearGradient id="linear-gradient" x1="68.3" y1="146.47" x2="70.99" y2="14" gradientUnits="userSpaceOnUse"><stop offset="0" stop-color="#b22cd5"/><stop offset="1" stop-color="#f82c8d"/></linearGradient><linearGradient id="linear-gradient-2" x1="86.68" y1="-2.1" x2="86.68" y2="150.5" gradientUnits="userSpaceOnUse"><stop offset="0" stop-color="#8624e1"/><stop offset="1" stop-color="#4d0fb7"/></linearGradient><linearGradient id="linear-gradient-3" x1="99.61" y1="147.1" x2="102.29" y2="14.63" xlink:href="#linear-gradient"/><linearGradient id="linear-gradient-4" x1="8.8" y1="145.26" x2="11.49" y2="12.79" xlink:href="#linear-gradient"/><linearGradient id="linear-gradient-5" x1="124.41" y1="-2.1" x2="124.41" y2="150.5" xlink:href="#linear-gradient-2"/><linearGradient id="linear-gradient-6" x1="58.18" y1="-2.1" x2="58.18" y2="150.5" xlink:href="#linear-gradient-2"/></defs><g id="Ebene_2" data-name="Ebene 2"><g id="Layer_1" data-name="Layer 1"><path class="cls-1" d="M220.56,113.2l-41.09-55v55h-7.83V44.72h8.12L220.85,99.8V44.72h7.73V113.2Z"/><path class="cls-1" d="M257.25,52.25v22.5h34.53v7.54H257.25v23.48h39.91v7.43H249.42V44.72h46.47v7.53Z"/><path class="cls-1" d="M334,52.25v61h-7.83V52.25h-22.3V44.72h52.53v7.53Z"/><path class="cls-1" d="M371.81,105.77h45.88l-.1,7.43h-56v-6.26l45.39-54.69H362.81V44.72H417.2V51Z"/><path class="cls-1" d="M481.38,113.2V83.07H440.1V113.2h-7.83V44.72h7.83V75.64h41.28V44.72h7.83V113.2Z"/><path class="cls-1" d="M517.78,52.25v22.5h34.53v7.54H517.78v23.48h39.91v7.43H510V44.72h46.47v7.53Z"/><path class="cls-1" d="M604.26,91.39c-1.47.09-3,.19-4.6.19H581.47V113.2h-7.83V44.72h26c17.12,0,27,8.41,27,23,0,11.35-5.48,19-15.36,22.21l16.05,23.28h-8.9Zm-4.6-7.34c12.43,0,19.47-5.48,19.47-16.14,0-10.37-7-15.66-19.47-15.66H581.47v31.8Z"/><path class="cls-1" d="M709.63,79c0,19.27-15.85,34.63-35.81,34.63S637.92,98.23,637.92,79s15.84-34.43,35.9-34.43S709.63,59.69,709.63,79Zm-63.79,0c0,15.07,12.72,27.1,28,27.1S701.6,94,701.6,79s-12.52-27-27.78-27S645.84,63.9,645.84,79Z"/><path class="cls-2" d="M64.46,112.59h-.08a4,4,0,0,0-4,4v26.59l-47-27.62V41.76l47-27.62V56.73l66,32.83v11.28a4,4,0,0,0,4,4h.08a4,4,0,0,0,4-4V85.66l-66-32.83V0L5.28,37.13V120.2l46.77,27.48h0l16.42,9.64V116.59A4,4,0,0,0,64.46,112.59Z"/><path class="cls-3" d="M88.08,0V40.73a4,4,0,0,0,4,4h.08a4,4,0,0,0,4-4V14.14l47,27.62v73.8l-40,23.53h0l-7,4.09V100.59l-66-32.83V56.48a4,4,0,0,0-4-4H26.1a4,4,0,0,0-4,4V71.66l66,32.84v52.82l63.19-37.12V37.13Z"/><circle class="cls-4" cx="101.14" cy="71.29" r="9.85"/><circle class="cls-5" cx="9.85" cy="93.67" r="9.85"/><circle class="cls-6" cx="124.41" cy="131.26" r="9.85"/><circle class="cls-7" cx="58.18" cy="85.62" r="9.85"/><circle class="cls-6" cx="124.41" cy="25.65" r="9.85"/></g></g></svg>